<svg class="icon" viewBox="0 0 1024 1024" xmlns="http://www.w3.org/2000/svg" width="200" height="200"><path d="M745.486 285.486c21.714-21.6 21.714-56.8 0-78.4L665.6 127.2l.114.114C644.571 106.171 608.23 69.83 556.8 18.514c-24.229-23.657-63.429-23.428-87.429.572L19.314 468.8a61.531 61.531 0 0 0 0 87.314l449.943 449.6a61.874 61.874 0 0 0 87.429 0L745.37 817.143c21.715-21.6 21.715-56.8 0-78.4a55.657 55.657 0 0 0-78.514 0L524 881.829c-5.943 5.942-15.2 5.942-21.143 0L143.43 522.743c-5.943-5.943-5.943-15.2 0-21.143l359.314-359.086c.457-.457 1.028-.8 1.486-1.257 5.942-4.686 14.171-4.228 19.657 1.257L666.97 285.486c21.715 21.714 56.915 21.714 78.515 0zM393.829 514.743a121.486 121.371 0 1 0 242.971 0 121.486 121.371 0 1 0-242.971 0zm612.8-44.114L866.17 330.857c-21.714-21.6-56.914-21.6-78.514.114a55.314 55.314 0 0 0 0 78.4l94.857 94.743c5.943 5.943 5.943 15.2 0 21.143L789.03 618.63a55.314 55.314 0 0 0 0 78.4 55.657 55.657 0 0 0 78.514 0l139.2-139.086a61.634 61.634 0 0 0-.114-87.314z"/></svg>