<svg class="icon" viewBox="0 0 1024 1024" xmlns="http://www.w3.org/2000/svg" width="200" height="200"><path d="M226.8 535.7c96.8-20.8 83.6-136.4 80.6-161.7-4.8-39-50.6-107.2-112.8-101.8-78.3 7-89.8 120.2-89.8 120.2-10.5 52.3 25.4 164.1 122 143.3zm102.7 201.1c-2.9 8.2-9.1 28.9-3.7 47 10.8 40.6 46.1 42.4 46.1 42.4h50.7V702.4h-54.2c-24.5 7.3-36.3 26.3-38.9 34.4zm76.8-395c53.5 0 96.6-61.5 96.6-137.6 0-76-43.1-137.5-96.6-137.5-53.4 0-96.6 61.5-96.6 137.5 0 76.1 43.2 137.6 96.6 137.6zm230.2 9.1c71.4 9.3 117.4-67 126.4-124.8 9.3-57.6-36.8-124.7-87.3-136.2-50.7-11.6-113.9 69.5-119.7 122.4-6.8 64.8 9.3 129.4 80.6 138.6zm175 339.6S701 605 636.5 512.6c-87.4-136.3-211.7-80.8-253.2-11.6-41.4 69.3-105.8 113.1-115 124.7-9.3 11.5-133.5 78.5-105.9 200.9C189.9 949 286.8 946.8 286.8 946.8s71.3 7 154.2-11.5c82.8-18.4 154.1 4.6 154.1 4.6s193.4 64.7 246.4-60c52.8-124.8-30-189.4-30-189.4zm-331 185.6H354.8c-54.3-10.9-76-47.9-78.7-54.2-2.7-6.4-18.1-36.2-9.9-86.9 23.5-76 90.4-81.4 90.4-81.4h66.9v-82.3l57 .9v303.9zm234.3-.9H570c-56.1-14.4-58.7-54.3-58.7-54.3v-160l58.7-1v143.8c3.6 15.3 22.7 18.2 22.7 18.2h59.6v-161h62.5v214.3zm204.8-427.3c0-27.6-22.9-110.9-108.1-110.9-85.3 0-96.7 78.6-96.7 134.1 0 53 4.5 127.1 110.5 124.6 106-2.3 94.3-120 94.3-147.8zm0 0" fill="#666"/></svg>