<svg class="icon" viewBox="0 0 1024 1024" xmlns="http://www.w3.org/2000/svg" width="200" height="200"><path d="M938.667 224v704a53.393 53.393 0 0 1-53.334 53.333h-704A53.393 53.393 0 0 1 128 928V224a53.393 53.393 0 0 1 53.333-53.333h92.987c-.667 1.126-1.333 2.266-2 3.406C261.493 193.22 256 213.607 256 234.667a64 64 0 0 0 64 64h426.667a64 64 0 0 0 64-64c0-21.06-5.494-41.447-16.32-60.594-.667-1.14-1.334-2.28-2-3.406h92.986A53.393 53.393 0 0 1 938.667 224zM729.62 163.12c-19.533-16.153-46.053-29.667-77.187-39.38A129.22 129.22 0 0 0 610.98 68.9a128 128 0 0 0-155.293 0 129.22 129.22 0 0 0-41.454 54.84c-31.133 9.713-57.646 23.227-77.186 39.38-25.107 20.76-38.38 45.5-38.38 71.547A21.333 21.333 0 0 0 320 256h426.667A21.333 21.333 0 0 0 768 234.667c0-26.047-13.273-50.787-38.38-71.547zm-181.2 598.667l128-128a21.333 21.333 0 0 0-30.173-30.174l-91.58 91.554V448A21.333 21.333 0 0 0 512 448v247.167l-91.58-91.587a21.333 21.333 0 0 0-30.173 30.173l128 128a21.333 21.333 0 0 0 30.173 0z" fill="#5C5C66"/></svg>