<svg class="icon" viewBox="0 0 1024 1024" xmlns="http://www.w3.org/2000/svg" width="200" height="200"><path d="M512 13.033A510.138 510.138 0 0 0 90.53 809.658a35.142 35.142 0 0 0 28.86 15.127 33.978 33.978 0 0 0 20.246-6.05 34.676 34.676 0 0 0 9.31-48.408A438.924 438.924 0 0 1 73.774 541.79h56.785a37.702 37.702 0 0 0 0-75.17H76.335A437.993 437.993 0 0 1 162.909 256l32.582 32.582a37.702 37.702 0 0 0 53.294-53.062l-34.676-35.142A439.156 439.156 0 0 1 477.324 84.015a34.444 34.444 0 0 0-2.095 11.869v59.345a37.702 37.702 0 0 0 75.171 0V96.35a40.96 40.96 0 0 0-2.095-11.869 437.993 437.993 0 0 1 261.586 114.735l-36.306 36.305a37.702 37.702 0 0 0 53.295 53.062l34.21-33.978a436.596 436.596 0 0 1 88.205 212.014H893.44a37.702 37.702 0 0 0 0 75.171h58.88a437.295 437.295 0 0 1-72.61 224.815 34.91 34.91 0 0 0 58.18 38.632A510.37 510.37 0 0 0 512 13.033z"/><path d="M608.815 377.25L498.036 488.728a51.433 51.433 0 0 0-8.61 0 62.37 62.37 0 1 0 62.37 62.138 46.545 46.545 0 0 0 0-7.912l111.011-111.011a37.47 37.47 0 0 0-53.062-53.062z"/></svg>