<svg class="icon" viewBox="0 0 1024 1024" xmlns="http://www.w3.org/2000/svg" width="200" height="200"><path d="M1020.928 527.024a39.408 39.408 0 0 0 3.057-15.047c0-5.248-1.096-10.342-3.057-15.124a38.446 38.446 0 0 0-8.463-12.621L849.923 321.685c-15.278-15.283-40.043-15.283-55.408 0-15.278 15.36-15.278 40.13 0 55.412l95.691 95.692h-339.03V133.666l95.69 95.691a39.045 39.045 0 0 0 27.669 11.443c10.03 0 20.06-3.84 27.74-11.443 15.283-15.36 15.283-40.125 0-55.408L539.655 11.397c-1.802-1.88-4.075-2.74-6.19-4.147-2.114-1.414-3.993-3.216-6.425-4.235a39.46 39.46 0 0 0-30.172 0c-2.432 1.02-4.234 2.816-6.425 4.23-2.038 1.413-4.311 2.273-6.195 4.152L321.71 173.949c-15.283 15.283-15.283 40.048 0 55.408a39.208 39.208 0 0 0 55.407 0l95.692-95.691v339.123H133.779l95.61-95.692c15.359-15.282 15.359-40.053 0-55.412-15.284-15.283-40.049-15.283-55.409 0L11.525 484.232a37.273 37.273 0 0 0-8.473 12.62A38.369 38.369 0 0 0 0 511.978a37.99 37.99 0 0 0 3.057 15.052 37.585 37.585 0 0 0 8.463 12.698l162.46 162.465a39.03 39.03 0 0 0 27.745 11.443c10.035 0 20.065-3.763 27.663-11.443 15.36-15.283 15.36-40.125 0-55.408l-95.604-95.62h339.03v339.052l-95.69-95.62a39.065 39.065 0 0 0-55.408 0c-15.283 15.284-15.283 40.049 0 55.413l162.46 162.471a39.439 39.439 0 0 0 12.851 8.463 37.887 37.887 0 0 0 14.966 3.057c5.094 0 10.188-1.019 14.888-3.057a38.63 38.63 0 0 0 12.851-8.463l162.543-162.47c15.283-15.36 15.283-40.13 0-55.413-15.36-15.36-40.125-15.36-55.408 0l-95.692 95.62V551.164h339.031l-95.69 95.62c-15.279 15.282-15.279 40.124 0 55.407a39.03 39.03 0 0 0 27.744 11.443c10.035 0 20.065-3.763 27.663-11.443l162.542-162.47a38.773 38.773 0 0 0 8.463-12.698" fill="#304156"/></svg>