<svg class="icon" viewBox="0 0 1024 1024" xmlns="http://www.w3.org/2000/svg" width="200" height="200"><path d="M953.16 479.578L553.286 79.706c-11.04-11.04-25.72-17.122-41.335-17.122-15.614 0-30.294 6.08-41.336 17.122L70.745 479.578c-7.598 7.598-7.598 19.916 0 27.513 7.598 7.597 19.917 7.6 27.514 0l43.553-43.553v474.623c0 10.745 8.71 19.455 19.455 19.455h701.369c10.746 0 19.455-8.71 19.455-19.455V463.539l43.552 43.552a19.393 19.393 0 0 0 13.757 5.699 19.4 19.4 0 0 0 13.759-5.699c7.597-7.598 7.597-19.915 0-27.513zM375.518 918.494V596.507h272.376v321.987H375.518zm465.59-9.516c0 5.373-4.356 9.728-9.728 9.728H686.805V577.05c0-10.745-8.71-19.456-19.455-19.456H356.062c-10.745 0-19.455 8.71-19.455 19.456v341.655H191.295c-5.373 0-9.728-4.355-9.728-9.728V423.784L498.131 107.22c3.692-3.691 8.6-5.724 13.82-5.724s10.13 2.033 13.82 5.724l315.337 315.335v486.423z"/></svg>