<svg class="icon" width="200" height="200" viewBox="0 0 1024 1024" xmlns="http://www.w3.org/2000/svg"><path fill="#c7c7c7" d="M920.722.5a103.949 103.949 0 0 1 39.5 7.557c12.395 5.037 23.245 12.202 32.537 21.493a105.132 105.132 0 0 1 22.077 32.536c5.421 12.394 8.132 25.947 8.132 40.668v817.997c0 29.434-9.491 53.838-28.466 73.204-18.975 19.367-42.795 29.05-71.46 29.05H103.884c-30.985 0-55.973-10.075-74.947-30.217C9.963 972.654.472 947.474.472 917.265V101.587c0-27.107 9.3-50.735 27.89-70.87C46.952 10.56 71.741.502 102.725.502h817.997zm-269.57 871.451c13.944 0 24.011-3.294 30.208-9.875 6.197-6.589 9.3-15.304 9.3-26.147 0-10.075-3.103-18.59-9.3-25.563-6.197-6.973-16.264-10.451-30.209-10.451h-70.877c.776-1.551 1.16-3.878 1.16-6.973V216.618h72.044c13.937 0 23.62-3.486 29.05-10.459 5.421-6.972 8.132-15.496 8.132-25.563 0-10.075-2.719-18.591-8.132-25.564-5.43-6.972-15.113-10.458-29.05-10.458H369.962c-13.937 0-23.62 3.486-29.042 10.458-5.421 6.973-8.14 15.497-8.14 25.564 0 10.075 2.719 18.59 8.14 25.563 5.421 6.973 15.105 10.46 29.042 10.46h65.072v576.315c0 1.543.192 2.71.583 3.486.384.768.576 1.936.576 3.487h-63.896c-13.946 0-24.013 3.478-30.21 10.45-6.196 6.973-9.299 15.497-9.299 25.564 0 10.843 3.103 19.558 9.3 26.147 6.196 6.58 16.263 9.875 30.209 9.875h278.862z"/></svg>