<svg class="icon" width="200" height="200" viewBox="0 0 1024 1024" xmlns="http://www.w3.org/2000/svg"><path fill="#c7c7c7" d="M40.704 315.421l-.219.333 456.083 263.324a30.022 30.022 0 0 0 15.021 4.044c5.42 0 10.744-1.465 15.344-4.206L979.52 317.619c14.324-8.295 19.229-26.702 10.932-41.031-2.698-4.657-6.597-8.505-11.221-11.096L528.372 4.047a30.021 30.021 0 0 0-31.6.923L44.548 266.061c-14.33 8.23-19.291 26.588-11.059 40.924a29.984 29.984 0 0 0 7.215 8.436zM513.242 64.688l391.271 226.896-392.899 226.841-392.13-226.405L513.242 64.688zM979.231 485.93l-84.858-49.209-59.987 34.632 70.128 40.671-392.9 226.839-392.13-226.403 70.28-40.576-59.954-34.615-85.263 49.23c-14.33 8.233-19.291 26.591-11.058 40.923a29.98 29.98 0 0 0 7.366 8.558l-.19.321L496.569 799.52a30.027 30.027 0 0 0 15.02 4.042 30.056 30.056 0 0 0 15.344-4.204L979.52 538.063c14.324-8.3 19.229-26.707 10.932-41.032-2.699-4.661-6.598-8.51-11.221-11.101zm0 220.439l-84.509-49.008-59.985 34.632 69.778 40.467-392.9 226.842L119.484 732.9l69.93-40.377-59.951-34.613-84.915 49.03c-14.331 8.233-19.291 26.591-11.058 40.922a29.98 29.98 0 0 0 7.271 8.481l-.208.328 456.015 263.283a30.011 30.011 0 0 0 30.365-.156L979.521 758.5c14.323-8.301 19.227-26.708 10.931-41.033-2.696-4.655-6.595-8.504-11.221-11.098z"/></svg>