<svg class="icon" viewBox="0 0 1024 1024" xmlns="http://www.w3.org/2000/svg" width="200" height="200"><path d="M934.9 163H370.3c-13.8 0-25-11.2-25-25s11.2-25 25-25h564.6c13.8 0 25 11.2 25 25s-11.2 25-25 25zm0 381.9H370.3c-13.8 0-25-11.2-25-25s11.2-25 25-25h564.6c13.8 0 25 11.2 25 25s-11.2 25-25 25zm0 368.1H370.3c-13.8 0-25-11.2-25-25s11.2-25 25-25h564.6c13.8 0 25 11.2 25 25s-11.2 25-25 25zM62.999999999999986 138a72.7 72.7 0 1 0 145.4 0A72.7 72.7 0 1 0 63 138zM62.999999999999986 888a72.7 72.7 0 1 0 145.4 0A72.7 72.7 0 1 0 63 888zM62.999999999999986 513a72.7 72.7 0 1 0 145.4 0A72.7 72.7 0 1 0 63 513z"/></svg>