<svg class="icon" viewBox="0 0 1024 1024" xmlns="http://www.w3.org/2000/svg" width="200" height="200"><path d="M403.2 780.8V619.2h-160c-89.6 0-161.6 72-161.6 161.6s72 161.6 161.6 161.6 160-72 160-161.6zm81.6 0c0 134.4-108.8 243.2-243.2 243.2S0 915.2 0 780.8s108.8-243.2 243.2-243.2h243.2c-1.6 0-1.6 243.2-1.6 243.2zm134.4 0V619.2h161.6c89.6 0 161.6 72 161.6 161.6s-72 161.6-161.6 161.6-161.6-72-161.6-161.6zm-81.6 0c0 134.4 108.8 243.2 243.2 243.2S1024 915.2 1024 780.8 915.2 537.6 780.8 537.6H537.6v243.2zM403.2 243.2v161.6h-160c-89.6 0-161.6-72-161.6-161.6s72-161.6 161.6-161.6 160 72 160 161.6zm81.6 0C484.8 108.8 376 0 243.2 0 108.8 1.6 0 108.8 0 243.2s108.8 243.2 243.2 243.2h243.2c-1.6 0-1.6-243.2-1.6-243.2zm134.4 0v161.6h161.6c89.6 0 161.6-72 161.6-161.6s-72-161.6-161.6-161.6-161.6 72-161.6 161.6zm-81.6 0C537.6 108.8 646.4 0 780.8 0c134.4 1.6 241.6 108.8 241.6 243.2S913.6 486.4 779.2 486.4H537.6V243.2z"/></svg>