<svg class="icon" viewBox="0 0 1024 1024" xmlns="http://www.w3.org/2000/svg" width="200" height="200"><path d="M122.88 165.888h778.24c-9.216 0-16.384-7.168-16.384-16.384v713.728c0-9.216 7.168-16.384 16.384-16.384H122.88c9.216 0 16.384 7.168 16.384 16.384V150.016c0 8.192-6.656 15.872-16.384 15.872zM90.112 850.432a46.98 46.98 0 0 0 47.104 47.104h750.08a46.98 46.98 0 0 0 47.104-47.104V162.304a46.98 46.98 0 0 0-47.104-47.104h-750.08a46.98 46.98 0 0 0-47.104 47.104v688.128z"/><path d="M741.888 224.256H517.632c-29.184 0-52.736 23.552-52.736 52.224v49.664h-181.76c-29.696 0-53.76 23.552-53.76 52.736v347.648c0 29.184 24.064 52.736 53.76 52.736h353.792c29.696 0 53.248-23.552 53.248-52.736V548.864h50.688c29.184 0 52.736-23.552 52.736-52.224V276.48c1.024-28.672-22.528-52.224-51.712-52.224zm-92.672 502.272c0 6.656-5.12 11.776-11.776 11.776H283.136c-6.656 0-11.776-5.12-11.776-11.776V378.88c0-6.656 5.12-11.776 11.776-11.776h181.248V496.64c0 7.68 1.536 14.848 4.608 20.992L354.304 630.784v-41.472c0-11.264-9.216-20.48-20.992-20.48s-20.992 9.216-20.992 20.48v91.136c0 5.12 2.048 10.24 5.632 14.336l.512.512c.512.512.512.512 1.024.512 2.048 1.536 3.584 3.072 6.144 4.096s5.12 1.536 8.192 1.536h92.672c11.776 0 20.992-9.216 20.992-20.48s-9.216-20.48-20.992-20.48H384l116.224-114.176c5.632 2.048 11.264 3.072 17.408 3.072h131.072l.512 177.152zm74.24-256c0 4.608-3.584 8.192-8.192 8.192H545.28c-4.608 0-8.192-3.584-8.192-8.192V303.104c0-4.608 3.584-8.192 8.192-8.192h169.984c4.608 0 8.192 3.584 8.192 8.192v167.424z"/></svg>