<svg class="icon" viewBox="0 0 1024 1024" xmlns="http://www.w3.org/2000/svg" width="200" height="200"><path d="M771.537 215.354H400.754c-10.23 0-18.95 3.61-26.223 10.892-7.232 7.228-10.866 15.963-10.866 26.202v370.754c0 10.249 3.634 18.96 10.866 26.232 7.268 7.233 15.994 10.857 26.223 10.857h370.783c10.249 0 18.994-3.624 26.222-10.857 7.268-7.267 10.892-15.983 10.892-26.232V252.448c0-10.234-3.63-18.97-10.892-26.202-7.228-7.278-15.973-10.887-26.222-10.887zm-556.173 80.51v475.639c0 10.238 3.61 18.984 10.887 26.202 7.218 7.322 15.963 10.926 26.202 10.926H728.12c-7.742 21.733-21.174 39.55-40.282 53.458-19.118 13.798-40.653 20.7-64.601 20.7H252.448c-30.721 0-56.923-10.916-78.647-32.65-21.733-21.733-32.59-47.935-32.59-78.607V400.763c0-23.938 6.932-45.473 20.725-64.6 13.793-19.114 31.611-32.526 53.443-40.244l-.015-.05zm185.39-154.653h370.783c30.716 0 56.929 10.857 78.662 32.585 21.723 21.748 32.59 47.936 32.59 78.652v370.759c0 30.691-10.867 56.923-32.59 78.647-21.733 21.723-47.946 32.58-78.662 32.58H400.754c-30.682 0-56.904-10.857-78.642-32.58-21.724-21.724-32.59-47.956-32.59-78.647V252.448c0-30.711 10.866-56.904 32.59-78.647 21.733-21.733 47.955-32.59 78.642-32.59z"/></svg>