<svg class="icon" viewBox="0 0 1024 1024" xmlns="http://www.w3.org/2000/svg" width="200" height="200"><path d="M511.61 557.788c-45.736 0-82.943 37.212-82.943 82.95 0 18.18 5.775 35.45 16.722 49.924.225.313.481.605.732.912 20.49 23.88 21.98 40.924 22.072 42.486v47.375c0 23.946 19.482 43.417 43.418 43.417 23.946 0 43.423-19.486 43.423-43.417v-48.266c0-.543-.016-1.09-.072-1.629 0-.035.107-.005.113-.046.112-1.09.48-3.42 1.592-6.789 2.232-6.768 7.47-17.874 19.799-32.292.18-.21.353-.43.527-.64 11.5-14.7 17.577-32.348 17.577-51.036 0-45.737-37.212-82.949-82.96-82.949m36.04 110.572c-29 34.073-30.417 58.475-30.146 65.3v47.78c0 3.246-2.647 5.883-5.893 5.883s-5.883-2.642-5.883-5.883v-47.606c0-3.502-.963-31.303-30.705-66.212-5.775-7.823-8.827-17.106-8.827-26.885 0-25.047 20.373-45.424 45.415-45.424 25.047 0 45.43 20.377 45.43 45.424 0 10.102-3.246 19.646-9.39 27.623m0 0z"/><path d="M827.392 399.058h-2.36v-.277h-43.674v-120.33c0-.793-.056-1.592-.148-2.39-8.208-64.083-39.47-123.075-88.034-166.14-48.993-43.433-112.082-67.353-177.607-67.353-71.542 0-138.798 27.858-189.39 78.438-50.585 50.586-78.438 117.847-78.438 189.384v88.642l-51.133.026c-35.338 0-64.092 28.754-64.092 64.097V917.34c0 35.338 28.754 64.092 64.092 64.092h391.603c.558 0 1.132-.025 1.685-.082h235.806c.553.057 1.122.082 1.69.082 35.333 0 64.092-28.748 64.092-64.092V463.155c-.005-35.338-28.754-64.097-64.092-64.097m-542.09-88.668c0-61.512 23.951-119.332 67.44-162.816 43.485-43.495 101.31-67.446 162.816-67.446 56.34 0 110.572 20.567 152.684 57.902 41.472 36.772 68.27 87.025 75.54 141.635v119.122l-458.48.276V310.39m568.606 606.95c0 13.957-10.828 25.426-24.524 26.445h-.149l-632.627.077c-14.623 0-26.527-11.894-26.527-26.522V463.155c0-14.628 11.9-26.532 26.527-26.532l69.919-.035c.957 0 1.894-.098 2.81-.23 1.01.158 2.038.276 3.093.276h354.586c.343.005.87.015 1.556.015 1.48 0 3.738-.036 6.63-.184H760.54c.778.097 1.572.158 2.37.158h64.482c14.618 0 26.522 11.91 26.522 26.532V917.34h-.006m0 0z"/></svg>