<svg class="icon" viewBox="0 0 1024 1024" xmlns="http://www.w3.org/2000/svg" width="200" height="200"><path d="M905.186 178.844c-6.61-6.159-13.993-13.02-21.97-20.408-22.793-21.113-45.781-42.228-67.518-61.948-2.455-2.226-2.455-2.226-4.912-4.45-29.002-26.257-53.195-47.661-71.072-62.744-10.46-8.825-18.693-15.433-24.743-19.792-4.016-2.893-7.28-4.977-10.5-6.503-4.053-1.922-7.833-3.093-13.164-2.993C677.046.273 665.6 11.769 665.6 26.183V256.448H896l-25.6-25.585v767.552L896 972.83H230.381c-42.477 0-76.781-34.206-76.781-76.623V26.183L128 51.768h460.8c14.138 0 25.6-11.455 25.6-25.585S602.938.598 588.8.598H102.4v895.609C102.4 966.91 159.653 1024 230.381 1024H921.6V205.278H691.2l25.6 25.585V26.183c0 13.63-11.052 24.731-24.532 24.984-4.562.086-7.198-.731-9.74-1.936-.269-.127.817.566 2.501 1.78 4.75 3.422 12.117 9.334 21.657 17.383 17.323 14.615 41.13 35.679 69.728 61.568a6296.08 6296.08 0 0 1 4.871 4.415c21.592 19.587 44.454 40.587 67.129 61.59a9989.019 9989.019 0 0 1 21.856 20.303c3.94 3.671 6.75 6.296 8.23 7.681 10.319 9.66 26.519 9.13 36.184-1.183s9.135-26.504-1.184-36.163a5497.73 5497.73 0 0 0-8.314-7.76zM102.4 461.13H0v434.946h1024V461.129H153.6v-.598h-51.2v.598zM208.2 711v108.2h-50.6V528H269c32.533 0 58.367 8.467 77.5 25.4 19.133 16.933 28.7 39.333 28.7 67.2 0 28.533-9.367 50.733-28.1 66.6-18.733 15.867-44.966 23.8-78.7 23.8h-60.2zm0-40.6H269c18 0 31.733-4.233 41.2-12.7 9.467-8.467 14.2-20.7 14.2-36.7 0-15.733-4.8-28.3-14.4-37.7-9.6-9.4-22.8-14.233-39.6-14.5h-62.2v101.6zm211.2 148.8V528h86c25.733 0 48.567 5.733 68.5 17.2 19.933 11.467 35.367 27.733 46.3 48.8 10.933 21.067 16.4 45.2 16.4 72.4V681c0 27.6-5.5 51.867-16.5 72.8s-26.667 37.067-47 48.4c-20.333 11.333-43.633 17-69.9 17h-83.8zM470 568.8v210h33c26.533 0 46.9-8.3 61.1-24.9 14.2-16.6 21.433-40.433 21.7-71.5v-16.2c0-31.6-6.867-55.733-20.6-72.4-13.733-16.667-33.667-25-59.8-25H470zm384.8 127H737.6v123.4H687V528h185v40.8H737.6v86.6h117.2v40.4z"/></svg>