<svg class="icon" viewBox="0 0 1024 1024" xmlns="http://www.w3.org/2000/svg" width="200" height="200"><path d="M936.64 505.984c-11.264 0-22.528 11.84-22.528 23.744v337.664c0 5.952-5.632 5.952-5.632 5.952H582.464c-16.896 0-39.36-17.728-39.36-41.472 0-23.68 16.896-41.408 28.096-41.408h292.352c11.2 0 22.464-11.904 22.464-23.68v-308.16c0-11.904-11.264-23.744-22.464-23.744H604.928c-50.624 0-95.616 35.584-106.816 88.896h-5.632a193.792 193.792 0 0 1-61.824 11.84 177.728 177.728 0 0 1-174.272-142.208c-5.632-17.792-5.632-29.632-5.632-47.424 0-11.84 0-29.632 5.632-47.36 22.464-77.056 95.552-142.208 179.904-142.208 73.088 0 146.176 53.312 168.704 136.256v5.952h56.192V286.72c-11.264-41.472-33.664-82.944-61.824-112.576a216.64 216.64 0 0 0-163.072-76.992h-5.632c-61.824 0-118.08 29.632-163.072 71.104-44.928 47.424-73.024 112.576-73.024 177.728 0 65.216 22.464 130.368 67.456 177.728 11.264 11.904 22.528 17.728 33.728 29.632 5.632 5.952 5.632 5.952 11.264 5.952-45.056 17.792-84.352 41.472-118.08 76.992l-16.896 17.728a443.136 443.136 0 0 0-61.824 83.008c-5.632 5.888-5.632 11.84-11.264 23.68-16.832 35.584-28.096 76.992-33.728 124.352 0 17.792 11.264 35.584 28.096 35.584h11.264c11.264 0 22.528-11.84 22.528-29.632a374.4 374.4 0 0 1 95.552-195.52C284.48 630.4 363.2 594.88 447.488 594.88c16.896 0 39.36 0 56.192 5.888V849.6c0 47.36 33.728 76.992 67.456 76.992h331.712c33.728 0 56.256-29.632 56.256-59.264V535.616c0-17.792-11.2-29.632-22.464-29.632zm-393.6 47.36c0-35.584 28.096-65.216 61.888-65.216h236.096v248.896H571.2c-11.264 0-22.528 0-28.096 5.888V553.344h-.064z"/><path d="M616.192 808.128h-11.264a32.896 32.896 0 0 0-16.896 29.632c0 11.904 11.264 23.68 28.096 23.68h247.36c11.2 0 22.464-5.888 22.464-23.68 0-5.952 0-17.728-5.632-23.68 0-5.952-5.632-5.952-16.832-5.952H616.192z"/></svg>