<svg class="icon" viewBox="0 0 1024 1024" xmlns="http://www.w3.org/2000/svg" width="200" height="200"><path d="M537.577 0C883.01 0 899.862 329.788 899.862 329.788c52.356 69.207 24.072 131.794 24.072 131.794 168.504 264.793 59.578 341.222 29.488 346.639-29.488 5.416-58.375-32.498-58.375-32.498s-9.629 37.914-33.7 58.375c87.862 40.923 72.216 92.076 72.216 92.076s-18.656 154.061-383.95 56.57l-31.294-5.417c-350.25 126.379-393.579-43.931-393.579-43.931s-14.443-71.013 53.56-97.492c-39.718-24.073-53.56-75.226-53.56-75.226s-35.506 57.773-81.845 36.71C-3.444 775.723-31.728 587.36 143.998 451.352c0 0-25.276-80.642 32.497-128.786 0 0 15.647-322.566 361.082-322.566zM230.056 341.222c-76.43 64.995-25.276 129.99-25.276 129.99-168.505 103.51-138.415 270.81-138.415 270.81s27.081-13.24 45.737-52.356c19.258-39.118 48.746 6.62 48.746 6.62s18.656 89.066 74.624 123.97c56.57 34.905-2.407 57.172-2.407 57.172s-61.986.602-56.57 43.33c5.416 42.126 205.817 95.084 325.575 1.203l63.791 8.426c209.428 72.818 312.938 4.814 319.557-8.426 6.62-13.24-31.895-38.515-67.401-53.56-35.507-15.045-44.534-30.692-13.24-51.153 31.294-21.063 43.931-62.588 61.986-105.316 18.054-42.728 45.736-21.665 49.347-9.629 3.611 12.036 29.489 52.357 29.489 52.357s68.003-72.216-73.42-285.856c0 0 30.692-63.791-21.063-116.148 0 0-12.638-300.3-320.16-300.3-306.317 0-300.9 288.866-300.9 288.866z"/></svg>