<svg class="icon" viewBox="0 0 1024 1024" xmlns="http://www.w3.org/2000/svg" width="200" height="200"><path d="M554.688 500.352v256h-85.376v-256h-128L512 314.24l170.688 186.24h-128zM1024 640.192C1024 782.912 919.872 896 787.648 896h-512C123.904 896 0 761.6 0 597.504 0 451.968 94.656 331.52 226.432 302.976 284.16 195.456 391.808 128 512 128c152.32 0 282.112 108.416 323.392 261.12C941.888 413.44 1024 519.04 1024 640.192zM764.8 434.88C740.352 305.856 635.904 212.16 512 212.16c-97.28 0-183.04 57.344-224.64 147.456l-9.28 20.224-20.928 2.944c-103.36 14.4-178.368 104.32-178.368 214.72 0 117.952 88.832 214.4 196.928 214.4h512c88.32 0 157.504-75.136 157.504-171.712 0-88.064-65.92-164.928-144.96-171.776l-29.504-2.56-5.888-30.976z" fill="#262626"/></svg>