<svg class="icon" viewBox="0 0 1024 1024" xmlns="http://www.w3.org/2000/svg" width="200" height="200"><path d="M442.182 418.91a186.182 186.182 0 1 1 0-372.365 186.182 186.182 0 0 1 0 372.364zm0-46.546a139.636 139.636 0 1 0 0-279.273 139.636 139.636 0 0 0 0 279.273zm395.636 581.818a23.273 23.273 0 0 1-23.273 23.273H69.818a23.273 23.273 0 0 1-23.273-23.273v-46.546C46.545 689.13 223.675 512 442.182 512s395.636 177.129 395.636 395.636v46.546zm-46.545-23.273v-23.273c0-192.79-156.3-349.09-349.091-349.09S93.09 714.845 93.09 907.635v23.273h698.182zm0-698.182v-46.545h186.182v46.545H791.273zm0 186.182v-46.545h186.182v46.545H791.273zm93.09 186.182v-46.546h93.092v46.546h-93.091z" fill="#6D7793"/></svg>