<svg class="icon" viewBox="0 0 1024 1024" xmlns="http://www.w3.org/2000/svg" width="200" height="200"><path d="M767.819 409.173c99.52 35.094 170.848 129.963 170.848 241.494 0 42.709-10.496 83.978-30.262 120.842-1.792 3.339-4.992 8.928-9.696 16.96l14.614 53.558c6.506 23.893-15.403 45.813-39.296 39.296l-53.643-14.635-6.23 3.67a254.933 254.933 0 0 1-131.487 36.309c-77.995 0-147.84-34.88-194.806-89.888a352.608 352.608 0 0 1-56.64 4.554c-63.338 0-124.266-16.853-177.472-48.298-1.834-1.088-6.41-3.734-13.632-7.894l-80.544 21.654c-23.914 6.432-45.76-15.574-39.146-39.435l21.792-78.752a961.205 961.205 0 0 1-15.904-27.317A336.384 336.384 0 0 1 85.333 480c0-188.619 154.966-341.333 345.888-341.333 159.915 0 297.984 108.01 335.819 259.296a31.772 31.772 0 0 1 .779 11.2zm-68.107-13.952c-36.832-113.184-144.533-192.554-268.49-192.554-155.787 0-281.889 124.266-281.889 277.333 0 46.272 11.499 90.837 33.195 130.699 2.88 5.29 10.176 17.706 21.621 36.746a32 32 0 0 1 3.414 25.014l-10.518 37.994 39.232-10.549a32 32 0 0 1 24.235 3.147c14.272 8.192 22.773 13.098 25.803 14.89a283.883 283.883 0 0 0 144.906 39.392c6.155 0 12.288-.192 18.39-.576a255.061 255.061 0 0 1-22.944-106.09c0-141.387 114.613-256 256-256 5.728 0 11.413.192 17.045.554zm133.707 397.056a32 32 0 0 1 3.338-24.725A996.672 996.672 0 0 0 852 741.259a190.997 190.997 0 0 0 22.667-90.592c0-106.038-85.963-192-192-192s-192 85.962-192 192 85.962 192 192 192a190.933 190.933 0 0 0 98.57-27.2c2.208-1.323 8.288-4.875 18.518-10.838a32 32 0 0 1 24.522-3.21l12.566 3.424-3.424-12.566zm-502.752-365.61a42.667 42.667 0 1 1 0-85.334 42.667 42.667 0 0 1 0 85.334zm192 0a42.667 42.667 0 1 1 0-85.334 42.667 42.667 0 0 1 0 85.334zM608 629.333a32 32 0 1 1 0-64 32 32 0 0 1 0 64zm149.333 0a32 32 0 1 1 0-64 32 32 0 0 1 0 64z"/></svg>